<?xml version="1.0" encoding="utf-8"?>
<!-- Generator: Adobe Illustrator 24.1.2, SVG Export Plug-In . SVG Version: 6.00 Build 0)  -->
<svg version="1.1" xmlns="http://www.w3.org/2000/svg" xmlns:xlink="http://www.w3.org/1999/xlink" x="0px" y="0px"
	 viewBox="0 0 31.55 30.75" style="enable-background:new 0 0 31.55 30.75;" xml:space="preserve">
<style type="text/css">
	.st0{fill:#303038;}
	.st1{fill:#454258;}
	.st2{fill:#EBF7FF;}
	.st3{fill:#005E53;}
	.st4{fill:#FFFFFF;}
	.st5{opacity:0.1;fill:#272425;}
	.st6{fill:#4D877B;}
	.st7{fill:#85898D;}
	.st8{fill:#D5FFC5;}
	.st9{fill:#63ADE3;}
	.st10{fill:#DBE2E8;}
	.st11{opacity:0.2;fill:#4F4F4F;}
	.st12{fill:#AA0C00;}
	.st13{fill:none;stroke:#FFFFFF;stroke-width:0.3;stroke-miterlimit:10;}
	.st14{fill:#65931D;}
	.st15{fill:none;stroke:#000000;stroke-width:0.75;stroke-miterlimit:10;}
	.st16{fill:#ED7600;}
	.st17{fill:none;stroke:#FFFFFF;stroke-width:0.5;stroke-miterlimit:10;}
	.st18{opacity:0.2;fill:none;stroke:#4F4F4F;stroke-width:0.25;stroke-miterlimit:10;}
	.st19{fill:none;stroke:#FFFFFF;stroke-width:10;stroke-miterlimit:10;}
</style>
<g id="BACKGROUND">
</g>
<g id="OBJECTS">
	<g>
		<path class="st17" d="M10.27,19.54V6.33c0,0,0.06-1.44,1.38-1.55c0.34-0.03,0.64,0.02,0.9,0.1c0.67,0.23,1.12,0.86,1.12,1.57v7.46
			"/>
		<path class="st17" d="M15.78,23.67c0,0-0.92-4.02-5.51-4.13l-3.62-4.07c-0.43-0.48-1.08-0.72-1.71-0.6
			c-0.35,0.07-0.71,0.25-0.98,0.64c-0.85,1.24,0,2.59,0,2.59l3.92,5.92c0.82,1.23,1.86,2.3,3.09,3.12c1.36,0.9,3.19,1.68,5.27,1.41
			c3.44-0.44,5.32-2,6.4-4.65c0.53-1.29,0.78-2.68,0.78-4.08V9.25c0-0.54-0.22-1.06-0.62-1.41c-0.43-0.38-1.76-0.67-2.41,0.28"/>
		<path class="st17" d="M20.39,14.66V5.28c0-0.94-0.71-1.74-1.65-1.81c-0.03,0-0.06,0-0.09-0.01c-1.44-0.06-1.72,0.98-1.72,0.98"/>
		<path class="st17" d="M16.93,14.08V3.89c0-0.71-0.42-1.37-1.08-1.63c-0.32-0.13-0.71-0.17-1.14,0c0,0-1.12,0.47-1.12,1.94
			l0.07,2.55"/>
	</g>
</g>
<g id="DESIGNED_BY_FREEPIK">
</g>
</svg>
