<?xml version="1.0" encoding="utf-8"?>
<!-- Generator: Adobe Illustrator 24.1.2, SVG Export Plug-In . SVG Version: 6.00 Build 0)  -->
<svg version="1.1" xmlns="http://www.w3.org/2000/svg" xmlns:xlink="http://www.w3.org/1999/xlink" x="0px" y="0px"
	 viewBox="0 0 40.46 33.59" style="enable-background:new 0 0 40.46 33.59;" xml:space="preserve">
<style type="text/css">
	.st0{fill:#303038;}
	.st1{fill:#454258;}
	.st2{fill:#EBF7FF;}
	.st3{fill:#005E53;}
	.st4{fill:#FFFFFF;}
	.st5{opacity:0.1;fill:#272425;}
	.st6{fill:#4D877B;}
	.st7{fill:#85898D;}
	.st8{fill:#DBE2E8;}
	.st9{fill:#D5FFC5;}
	.st10{opacity:0.2;fill:#4F4F4F;}
	.st11{fill:#65931D;}
	.st12{fill:none;stroke:#FFFFFF;stroke-width:0.3;stroke-miterlimit:10;}
	.st13{fill:#F2F2F2;}
	.st14{fill:#AA0C00;}
	.st15{fill:none;stroke:#FFFFFF;stroke-width:0.5;stroke-miterlimit:10;}
	.st16{fill:none;stroke:#000000;stroke-width:0.5;stroke-miterlimit:10;}
	.st17{fill:#63ADE3;}
	.st18{fill:#ED7600;}
	.st19{fill:none;stroke:#FFFFFF;stroke-miterlimit:10;}
</style>
<g id="BACKGROUND">
</g>
<g id="OBJECTS">
	<g>
		<path class="st15" d="M23.83,29.56c-9.05,0.87-11.91-4.38-11.91-4.38H6.7V13.63l5.61-0.14l9.52-6.38l2.68-4
			c0,0,4.85-0.43,2.03,5.36c0,0-0.9,1.96-2.64,3.41"/>
		<path class="st15" d="M21.87,15.15c-0.06,0.43-0.15,0.83-0.27,1.19l-0.22,0.33"/>
		<path class="st15" d="M16.15,20.51c0,0,2.36-0.1,4.07-1.84l0.16-0.49"/>
		<path class="st15" d="M30.22,11.82l-6.82-0.03c-1-0.01-1.81,0.8-1.81,1.79l0,0.94c-0.01,1,0.8,1.81,1.79,1.81l6.82,0.03
			c1,0.01,1.81-0.8,1.81-1.79l0-0.94C32.02,12.63,31.22,11.82,30.22,11.82z"/>
		<path class="st15" d="M31.67,16.36l-9.51-0.05c-1-0.01-1.81,0.8-1.81,1.79l0,0.94c-0.01,1,0.8,1.81,1.79,1.81l9.51,0.05
			c1,0.01,1.81-0.8,1.81-1.79l0-0.94C33.47,17.18,32.67,16.37,31.67,16.36z"/>
		<path class="st15" d="M30.61,20.9l-6.92-0.04c-1-0.01-1.81,0.8-1.81,1.79l0,0.94c-0.01,1,0.8,1.81,1.79,1.81l6.92,0.04
			c1,0.01,1.81-0.8,1.81-1.79l0-0.94C32.41,21.71,31.6,20.9,30.61,20.9z"/>
		<path class="st15" d="M28.56,25.43l-3.86-0.02c-1-0.01-1.81,0.8-1.81,1.79l0,0.94c-0.01,1,0.8,1.81,1.79,1.81l3.86,0.02
			c1,0.01,1.81-0.8,1.81-1.79l0-0.94C30.35,26.24,29.55,25.43,28.56,25.43z"/>
	</g>
</g>
<g id="DESIGNED_BY_FREEPIK">
</g>
</svg>
